<?xml version="1.0" standalone="no"?><!DOCTYPE svg PUBLIC "-//W3C//DTD SVG 1.1//EN" "http://www.w3.org/Graphics/SVG/1.1/DTD/svg11.dtd"><svg t="1637485199657" class="icon" viewBox="0 0 1024 1024" version="1.1" xmlns="http://www.w3.org/2000/svg" p-id="1890" width="28" height="28" xmlns:xlink="http://www.w3.org/1999/xlink"><defs><style type="text/css"></style></defs><path d="M1024 96a96 96 0 0 0-96-96H96a96 96 0 0 0-96 96v832a96 96 0 0 0 96 96h832a96 96 0 0 0 96-96V96z m-64 832a32 32 0 0 1-32 32H96a32 32 0 0 1-32-32V96a32 32 0 0 1 32-32h832a32 32 0 0 1 32 32v832zM576 240a96 96 0 0 0-96-96H224a96 96 0 0 0-96 96v256a96 96 0 0 0 96 96h256a96 96 0 0 0 96-96V240z m-64 256a32 32 0 0 1-32 32H224a32 32 0 0 1-32-32V240a32 32 0 0 1 32-32h256a32 32 0 0 1 32 32v256z m-164-10a114 114 0 1 0-114-114 114.128 114.128 0 0 0 114 114z m0-164a50 50 0 1 1-50 50 50.064 50.064 0 0 1 50-50zM832 912h48a32 32 0 0 0 0-64h-48a32 32 0 0 0 0 64z m-528-144a32 32 0 0 0 0-64h-64a32 32 0 0 0 0 64h64z m160 0a32 32 0 0 0 0-64h-64a32 32 0 0 0 0 64h64z m-304 80a32 32 0 0 0 0 64h576a32 32 0 0 0 0-64H160z m560-80a32 32 0 0 0 32-32V176a32 32 0 0 0-64 0v560a32 32 0 0 0 32 32z m144 0a32 32 0 0 0 32-32V176a32 32 0 0 0-64 0v560a32 32 0 0 0 32 32z" p-id="1891" fill="#bfbfbf"></path></svg>