<?xml version="1.0" standalone="no"?><!DOCTYPE svg PUBLIC "-//W3C//DTD SVG 1.1//EN" "http://www.w3.org/Graphics/SVG/1.1/DTD/svg11.dtd"><svg t="1637486426497" class="icon" viewBox="0 0 1024 1024" version="1.1" xmlns="http://www.w3.org/2000/svg" p-id="13091" width="32" height="32" xmlns:xlink="http://www.w3.org/1999/xlink"><defs><style type="text/css"></style></defs><path d="M938.667 426.667v-85.334c0-46.933-38.4-85.333-85.334-85.333H128c-46.933 0-85.333 38.4-85.333 85.333v341.334C42.667 729.6 81.067 768 128 768h725.333c46.934 0 85.334-38.4 85.334-85.333v-85.334c23.466 0 42.666-19.2 42.666-42.666v-85.334c0-23.466-19.2-42.666-42.666-42.666zM896 469.333v213.334c0 23.466-19.2 42.666-42.667 42.666H128c-23.467 0-42.667-19.2-42.667-42.666V341.333c0-23.466 19.2-42.666 42.667-42.666h725.333c23.467 0 42.667 19.2 42.667 42.666v128zM128 682.667h554.667V341.333H128v341.334z" fill="#bfbfbf" p-id="13092"></path></svg>