<?xml version="1.0" standalone="no"?><!DOCTYPE svg PUBLIC "-//W3C//DTD SVG 1.1//EN" "http://www.w3.org/Graphics/SVG/1.1/DTD/svg11.dtd"><svg t="1637479884694" class="icon" viewBox="0 0 1099 1024" version="1.1" xmlns="http://www.w3.org/2000/svg" p-id="1307" width="34.34375" height="32" xmlns:xlink="http://www.w3.org/1999/xlink"><defs><style type="text/css"></style></defs><path d="M906.26 398 906.26 337.2l-72.1 0.2 0-94.3c0-23.9-12.3-37.3-36.2-37.3l-86.9 0 0-73.8-61.5 0 0 73.8-92.4 0L557.16 132l-61.5 0-0.1 73.8L403.16 205.8l0.2-73.8-61.8 0 0.1 73.8-80.9 0c-29.7 0-41.9 13.4-41.7 44.4l-0.6 87.2-73.4 0L145.06 398l73.4 0 0 84.9-73.4-0.1 0 61.5 73.4 0.2 0 86.2-73.4 0 0 60.4 73.4 0 0 82.4c0 34 13.7 48.1 47.8 48.1l75.4 0-0.1 70.8 61.4 0 0.3-70.8 92.4 0 0 70.8 61.7 0-0.1-70.8 92.4 0-0.2 70.8 61.7 0 0.1-70.8 82.3 0c27.6 0 40.8-24.3 40.8-48.1l0-82.4 72.1 0 0-60.4L834.16 630.7l0-86.2 72.1 0 0-61.4-72.1-0.2L834.16 398 906.26 398zM772.56 760 280.06 760 280.06 267.4l492.6 0L772.66 760zM382.96 682.3l295.8 0c11.8 0 16.1-8.1 16.1-18.8L694.86 367c0-12.6-8.6-19.6-18.8-19.6L379.86 347.4c-15.4 0-19.9 5.7-19.9 21.2l0 290.6C359.96 674.6 367.56 682.3 382.96 682.3z" p-id="1308" fill="#bfbfbf"></path></svg>