<?xml version="1.0" standalone="no"?><!DOCTYPE svg PUBLIC "-//W3C//DTD SVG 1.1//EN" "http://www.w3.org/Graphics/SVG/1.1/DTD/svg11.dtd"><svg t="1637487290548" class="icon" viewBox="0 0 1024 1024" version="1.1" xmlns="http://www.w3.org/2000/svg" p-id="14968" width="32" height="32" xmlns:xlink="http://www.w3.org/1999/xlink"><defs><style type="text/css"></style></defs><path d="M491.52 793.6H104.96C63.95904 793.6 30.72 760.36096 30.72 719.36v-563.2C30.72 115.15904 63.95904 81.92 104.96 81.92h819.2c41.00096 0 74.24 33.23904 74.24 74.24v563.2c0 41.00096-33.23904 74.24-74.24 74.24H537.6v107.52h235.52a23.04 23.04 0 0 1 0 46.08H261.12a23.04 23.04 0 0 1 0-46.08h230.4v-107.52zM104.96 128a28.16 28.16 0 0 0-28.16 28.16v563.2a28.16 28.16 0 0 0 28.16 28.16h819.2a28.16 28.16 0 0 0 28.16-28.16v-563.2a28.16 28.16 0 0 0-28.16-28.16h-819.2z" fill="#bfbfbf" p-id="14969"></path></svg>