<?xml version="1.0" standalone="no"?><!DOCTYPE svg PUBLIC "-//W3C//DTD SVG 1.1//EN" "http://www.w3.org/Graphics/SVG/1.1/DTD/svg11.dtd"><svg t="1637485227271" class="icon" viewBox="0 0 1024 1024" version="1.1" xmlns="http://www.w3.org/2000/svg" p-id="1952" width="32" height="32" xmlns:xlink="http://www.w3.org/1999/xlink"><defs><style type="text/css"></style></defs><path d="M890 192H114v-39c0-13.807-11.193-25-25-25s-25 11.193-25 25v718c0 13.807 11.193 25 25 25s25-11.193 25-25V704h80v58c0 38.66 31.34 70 70 70h180c38.66 0 70-31.34 70-70v-58h50v58c0 38.66 31.34 70 70 70h110c38.66 0 70-31.34 70-70v-58h76c38.66 0 70-31.34 70-70V262c0-38.66-31.34-70-70-70zM464 762c0 11.028-8.972 20-20 20H264c-11.028 0-20-8.972-20-20v-58h220v58z m300 0c0 11.028-8.972 20-20 20H634c-11.028 0-20-8.972-20-20v-58h150v58z m146-128c0 11.028-8.972 20-20 20H114V242h776c11.028 0 20 8.972 20 20v372z" p-id="1953" fill="#bfbfbf"></path><path d="M695 283c-91.127 0-165 73.873-165 165s73.873 165 165 165 165-73.873 165-165-73.873-165-165-165z m81.317 246.317C754.597 551.038 725.718 563 695 563s-59.597-11.962-81.317-33.683C591.962 507.597 580 478.718 580 448c0-30.718 11.962-59.597 33.683-81.317C635.403 344.962 664.282 333 695 333s59.597 11.962 81.317 33.683C798.038 388.403 810 417.282 810 448c0 30.718-11.962 59.597-33.683 81.317z" p-id="1954" fill="#bfbfbf"></path><path d="M745 423h-25v-25c0-13.807-11.193-25-25-25s-25 11.193-25 25v25h-25c-13.807 0-25 11.193-25 25s11.193 25 25 25h25v25c0 13.807 11.193 25 25 25s25-11.193 25-25v-25h25c13.807 0 25-11.193 25-25s-11.193-25-25-25zM419 323H209c-13.807 0-25 11.193-25 25s11.193 25 25 25h210c13.807 0 25-11.193 25-25s-11.193-25-25-25zM419 423H209c-13.807 0-25 11.193-25 25s11.193 25 25 25h210c13.807 0 25-11.193 25-25s-11.193-25-25-25zM419 523H209c-13.807 0-25 11.193-25 25s11.193 25 25 25h210c13.807 0 25-11.193 25-25s-11.193-25-25-25z" p-id="1955" fill="#bfbfbf"></path></svg>