<?xml version="1.0" standalone="no"?><!DOCTYPE svg PUBLIC "-//W3C//DTD SVG 1.1//EN" "http://www.w3.org/Graphics/SVG/1.1/DTD/svg11.dtd"><svg t="1637485410797" class="icon" viewBox="0 0 1024 1024" version="1.1" xmlns="http://www.w3.org/2000/svg" p-id="6329" width="32" height="32" xmlns:xlink="http://www.w3.org/1999/xlink"><defs><style type="text/css"></style></defs><path d="M256 85.333333h512a85.333333 85.333333 0 0 1 85.333333 85.333334v682.666666a85.333333 85.333333 0 0 1-85.333333 85.333334H256a85.333333 85.333333 0 0 1-85.333333-85.333334V170.666667a85.333333 85.333333 0 0 1 85.333333-85.333334m256 85.333334a256 256 0 0 0-256 256c0 141.226667 114.773333 256 260.266667 256l-37.546667-95.146667a43.093333 43.093333 0 0 1 15.786667-58.453333l36.693333-21.333334a43.093333 43.093333 0 0 1 58.453333 15.786667l81.92 103.253333A255.018667 255.018667 0 0 0 768 426.666667a256 256 0 0 0-256-256m0 213.333333a42.666667 42.666667 0 0 1 42.666667 42.666667 42.666667 42.666667 0 0 1-42.666667 42.666666 42.666667 42.666667 0 0 1-42.666667-42.666666 42.666667 42.666667 0 0 1 42.666667-42.666667m-213.333333 384a42.666667 42.666667 0 0 0-42.666667 42.666667 42.666667 42.666667 0 0 0 42.666667 42.666666 42.666667 42.666667 0 0 0 42.666666-42.666666 42.666667 42.666667 0 0 0-42.666666-42.666667m217.173333-201.813333l106.24 269.226666 110.506667-64-180.053334-226.56-36.693333 21.333334z" fill="#bfbfbf" p-id="6330"></path></svg>