<?xml version="1.0" standalone="no"?><!DOCTYPE svg PUBLIC "-//W3C//DTD SVG 1.1//EN" "http://www.w3.org/Graphics/SVG/1.1/DTD/svg11.dtd"><svg t="1637851595599" class="icon" viewBox="0 0 1024 1024" version="1.1" xmlns="http://www.w3.org/2000/svg" p-id="2607" width="32" height="32" xmlns:xlink="http://www.w3.org/1999/xlink"><defs><style type="text/css"></style></defs><path d="M800 128H224c-52.9 0-96 43.1-96 96v584c0 52.9 43.1 96 96 96h576c52.9 0 96-43.1 96-96V224c0-52.9-43.1-96-96-96z m-96 64v192H320V192h384z m128 616c0 17.6-14.4 32-32 32H224c-17.6 0-32-14.4-32-32V224c0-17.6 14.4-32 32-32h32v224c0 17.7 14.3 32 32 32h448c17.7 0 32-14.3 32-32V192h32c17.6 0 32 14.4 32 32v584z" p-id="2608" fill="#bfbfbf"></path><path d="M736 512H352c-17.7 0-32 14.3-32 32s14.3 32 32 32h384c17.7 0 32-14.3 32-32s-14.3-32-32-32zM736 640H352c-17.7 0-32 14.3-32 32s14.3 32 32 32h384c17.7 0 32-14.3 32-32s-14.3-32-32-32zM608 352c17.7 0 32-14.3 32-32v-64c0-17.7-14.3-32-32-32s-32 14.3-32 32v64c0 17.7 14.3 32 32 32z" p-id="2609" fill="#bfbfbf"></path></svg>