<?xml version="1.0" standalone="no"?><!DOCTYPE svg PUBLIC "-//W3C//DTD SVG 1.1//EN" "http://www.w3.org/Graphics/SVG/1.1/DTD/svg11.dtd"><svg t="1637848624677" class="icon" viewBox="0 0 1024 1024" version="1.1" xmlns="http://www.w3.org/2000/svg" p-id="2942" width="32" height="32" xmlns:xlink="http://www.w3.org/1999/xlink"><defs><style type="text/css"></style></defs><path d="M320 919.466667C202.666667 919.466667 106.666667 823.466667 106.666667 704s96-215.466667 213.333333-215.466667c12.8 0 21.333333 8.533333 21.333333 21.333334s-8.533333 21.333333-21.333333 21.333333c-93.866667 0-170.666667 76.8-170.666667 172.8s76.8 172.8 170.666667 172.8 168.533333-74.666667 170.666667-168.533333V317.866667c0-117.333333 98.133333-213.333333 215.466666-213.333334 119.466667 0 215.466667 96 215.466667 215.466667s-96 215.466667-215.466667 215.466667c-12.8 0-21.333333-8.533333-21.333333-21.333334s8.533333-21.333333 21.333333-21.333333c96 0 172.8-76.8 172.8-172.8s-76.8-172.8-172.8-172.8S533.333333 224 533.333333 320v384c0 119.466667-96 215.466667-213.333333 215.466667z" fill="#bfbfbf" p-id="2943"></path></svg>